PathFileType	4	(X/Y/Z)	D:\TRACE\spotREDO_2-26-24\spot_justArm_Motion_3_3-v60.trc
DataRate	CameraRate	NumFrames	NumMarkers	Units	OrigDataRate	OrigDataStartFrame	OrigNumFrames
100.00	100.00	      38	9	mm	100.00	830	      6633
Frame#	Time	front left toe			Front right toe			aft left toe			aft right toe			Arm			FL body			FR body			AL Body			AR Body			
		X1	Y1	Z1	X2	Y2	Z2	X3	Y3	Z3	X4	Y4	Z4	X5	Y5	Z5	X6	Y6	Z6	X7	Y7	Z7	X8	Y8	Z8	X9	Y9	Z9	

830	8.290	-191.59888	14.23128	-283.69119	302.37946	14.08808	-253.45937	-226.45390	32.91527	333.32333	261.53754	35.55849	364.15378	-44.85316	658.80243	-816.21796	0.85662	528.88354	-333.45496	155.99884	532.74719	-326.44421	-47.09532	580.52185	547.51746	100.32300	580.73267	555.94531	
831	8.300	-191.70497	14.28407	-283.72498	302.17093	14.12149	-253.39088	-226.65379	32.92523	333.46204	261.40793	35.50718	364.17892	-43.37294	659.06012	-814.46094	0.78144	528.73260	-333.43762	155.82983	532.70673	-326.30969	-47.15772	580.48596	547.65173	100.21914	580.72815	556.02942	
832	8.310	-191.86780	14.28136	-283.65387	302.05255	14.16408	-253.34694	-226.82898	32.87617	333.48132	261.34857	35.47154	364.18307	-45.35731	659.88379	-816.19067	0.50370	528.51996	-333.34268	155.70155	532.63953	-326.28036	-47.22442	580.49457	547.67200	100.15725	580.84058	556.05829	
833	8.320	-192.19646	14.30946	-283.63208	301.94501	14.59826	-252.93051	-227.05922	32.94357	333.52097	261.23453	35.42332	364.12891	-45.91240	661.07043	-816.39313	-0.12761	528.27649	-333.29547	155.42159	532.53033	-326.29663	-47.48216	580.56012	547.75226	100.01225	580.84460	556.09985	
834	8.330	-192.35820	14.23099	-283.60425	301.70929	14.70039	-252.78859	-227.23506	32.93059	333.54050	261.22601	35.42988	364.19263	-46.35827	662.73328	-816.82025	-0.42723	528.16559	-333.20499	155.05965	532.48065	-326.41034	-47.53279	580.42987	547.79620	100.52541	580.72668	556.70538	
835	8.340	-192.61485	14.22257	-283.57495	301.60715	14.82815	-252.66925	-227.28763	32.89401	333.52676	261.19376	35.45575	364.17584	-46.64200	664.39520	-816.78009	-0.66816	528.15527	-333.14853	154.65813	532.40063	-326.44699	-47.61673	580.25104	547.81158	100.54021	580.51990	556.74646	
836	8.350	-192.75720	14.18396	-283.54843	301.35446	14.81242	-252.67949	-227.40829	32.86152	333.56635	261.16187	35.41187	364.19196	-46.78463	666.15649	-816.84625	-0.71587	528.14844	-333.13251	154.36378	532.49286	-326.42035	-47.73366	580.15472	547.80713	100.34074	580.40240	556.75891	
837	8.360	-192.88705	14.29206	-283.59512	301.27954	14.90095	-252.67145	-227.47452	32.76516	333.58063	261.13260	35.44333	364.21323	-44.95609	668.07910	-815.25446	-0.87537	528.34412	-333.03439	154.25122	532.70978	-326.46170	-47.81067	580.00439	547.78784	99.96043	580.28851	556.36237	
838	8.370	-192.97560	14.40156	-283.63553	301.17834	14.95217	-252.67435	-227.59624	32.72140	333.56442	261.06918	35.46004	364.25781	-46.91260	669.10632	-816.94830	-0.91688	528.58203	-333.04907	154.15372	532.96515	-326.42773	-47.91702	579.88751	547.80804	99.75530	580.15228	556.43243	
839	8.380	-193.02791	14.42868	-283.60925	300.95779	14.96143	-252.71538	-227.74088	32.75528	333.60355	260.79181	35.36587	364.24564	-46.99858	670.45685	-816.99219	-1.04073	529.09430	-333.02805	153.92546	533.31128	-326.40182	-48.09345	579.78613	547.98047	99.39423	580.01251	556.56323	
840	8.390	-193.12941	14.39219	-283.63092	300.71191	14.62748	-253.15660	-227.81296	32.67708	333.64688	260.50864	35.37766	364.22714	-46.98928	671.33868	-817.21558	-1.06636	529.35217	-332.97684	153.69586	533.63318	-326.37714	-48.32611	579.62384	548.12024	99.20928	579.94385	556.61517	
841	8.400	-193.25813	14.37874	-283.65936	300.59769	14.65850	-253.15237	-227.93037	32.67267	333.65387	260.14767	35.26620	364.23621	-47.02588	671.86670	-817.21570	-1.30318	529.75812	-332.82648	153.54773	533.93549	-326.34012	-48.46663	579.55396	548.15540	99.02034	579.87628	556.68866	
842	8.410	-193.36931	14.45098	-283.70923	300.54160	14.68201	-253.15274	-228.01579	32.68340	333.59344	260.02661	35.28868	364.20547	-46.97169	672.15277	-817.42255	-1.29524	530.00934	-332.75739	153.51373	534.21503	-326.42700	-48.58565	579.45087	548.21118	99.01413	579.76404	556.84100	
843	8.420	-193.45053	14.48581	-283.75830	300.61835	14.48105	-253.16496	-228.06699	32.69681	333.56970	259.89169	35.26348	364.16449	-46.99927	672.38556	-817.43616	-1.47489	530.22394	-332.76181	153.48706	534.52209	-326.39615	-48.73065	579.37665	548.33362	98.97308	579.71729	556.94037	
844	8.430	-193.49960	14.46931	-283.73895	300.61081	14.43486	-253.13889	-228.15987	32.72287	333.56476	259.90945	35.31987	364.20535	-45.26984	672.34357	-815.95355	-1.39955	530.30914	-332.74768	153.53758	534.66821	-326.09775	-48.89842	579.26080	548.41412	98.81545	579.71008	557.01294	
845	8.440	-193.54001	14.27865	-283.77090	300.59732	14.41336	-253.13405	-228.20212	32.74649	333.57993	259.83865	35.30260	364.18762	-46.83314	672.16370	-817.43872	-1.47059	530.46716	-332.74902	153.53706	534.83295	-325.67639	-49.00670	579.10992	548.52710	98.68104	579.64514	557.02563	
846	8.450	-193.53455	14.21208	-283.79968	300.54950	14.42289	-253.14949	-228.24016	32.75832	333.57932	259.68246	35.32096	364.10760	-46.81824	671.87354	-817.30676	-1.52402	530.60742	-332.72867	153.53711	534.98035	-325.54120	-49.29328	579.03180	548.46295	98.39696	579.58911	556.99542	
847	8.460	-193.59532	14.21126	-283.87808	300.52643	14.38240	-253.17227	-228.38406	32.79782	333.52353	259.69620	35.43463	364.13477	-46.78275	671.64746	-817.26270	-1.61414	530.75861	-332.74850	153.46896	535.33545	-325.87994	-49.43790	578.99609	548.45062	98.20926	579.50922	556.94476	
848	8.470	-193.63470	14.17422	-283.89246	300.45392	14.32178	-253.24721	-228.47740	32.90471	333.50562	259.69885	35.49852	364.12683	-46.80664	671.29639	-817.26172	-1.69955	530.85040	-332.69437	153.40327	535.45575	-325.82916	-49.54344	578.96466	548.46454	98.15105	579.51672	556.92786	
849	8.480	-193.72226	14.17250	-283.87036	300.38489	14.25208	-253.27625	-228.57297	32.89504	333.48706	259.73553	35.60083	364.13116	-46.93394	670.89929	-817.19214	-1.78002	530.94556	-332.68842	153.32497	535.56152	-325.80884	-49.67091	578.81348	548.52362	98.41708	579.56250	557.46875	
850	8.490	-193.75119	14.04480	-283.95844	300.33008	14.18018	-253.30066	-228.63229	32.92692	333.49026	259.64960	35.63130	364.14301	-47.18685	670.58966	-817.36890	-1.75044	530.94153	-332.66714	153.23584	535.66400	-325.81442	-49.89906	578.65594	548.52582	98.19638	579.47040	557.48474	
851	8.500	-193.79178	13.98437	-283.98792	300.27814	14.08609	-253.33446	-228.66888	32.93822	333.48111	259.65973	35.71591	364.16922	-47.07266	670.27765	-817.15973	-1.85609	530.94434	-332.66565	153.17815	535.68451	-325.79272	-50.01509	578.53680	548.55719	98.06192	579.39508	557.55981	
852	8.510	-193.89078	13.93060	-284.09613	300.25500	14.09341	-253.34468	-228.95427	32.99268	333.46640	259.63593	35.77816	364.17905	-47.30032	670.23535	-817.34015	-1.96319	530.93134	-332.63904	153.05832	535.71802	-325.75589	-50.20227	578.42627	548.52600	97.87049	579.26685	557.50696	
853	8.520	-193.87923	13.83664	-284.12656	300.15057	14.01959	-253.45711	-228.93301	33.06643	333.46457	259.63525	35.84214	364.15616	-47.30994	669.85858	-817.36700	-2.08502	530.88135	-332.60999	152.93912	535.67395	-325.74158	-50.04123	578.26483	548.40045	97.47108	579.17731	557.07318	
854	8.530	-193.90050	13.80942	-284.17499	300.17810	14.02366	-253.44887	-228.90685	33.05129	333.46631	259.57797	35.88025	364.16800	-47.40886	669.67401	-817.38354	-2.22475	530.80890	-332.60675	152.74063	535.58850	-325.70444	-50.05750	578.28204	548.44946	97.38304	579.17261	557.08862	
855	8.540	-193.97102	13.74824	-284.16620	300.10779	14.02292	-253.46980	-228.91164	33.21381	333.46301	259.50073	35.88697	364.14120	-47.47794	669.69086	-817.41949	-2.52197	530.80365	-332.58798	152.55583	535.25409	-325.27988	-50.10708	578.27234	548.48724	97.19097	579.13348	557.07281	
856	8.550	-193.92558	13.64822	-284.21729	300.10086	13.95346	-253.53271	-228.93655	33.31328	333.43933	259.46896	35.92638	364.11777	-47.55136	669.67963	-817.34937	-2.56557	530.60986	-332.57605	152.35783	535.20215	-325.21234	-50.27603	578.31390	548.68677	97.06579	579.04315	557.08844	
857	8.560	-194.01292	13.54472	-284.21149	300.14856	13.86474	-253.55623	-228.64043	33.26657	333.40894	259.41571	35.95203	364.07397	-46.14855	669.76202	-816.00238	-2.82950	530.62982	-332.54181	152.12756	535.16858	-325.18918	-50.40025	578.16016	548.75482	96.88903	578.92065	557.10773	
858	8.570	-194.05936	13.51127	-284.22595	300.10678	13.78148	-253.67079	-228.99336	33.64733	333.32388	259.40491	35.97507	364.03839	-47.61039	669.72876	-817.33704	-2.95879	530.63660	-332.50726	151.89571	535.41602	-325.61633	-50.45472	577.94165	548.80243	96.87833	578.78821	557.17682	
859	8.580	-193.95944	13.40744	-284.30704	300.12534	13.73936	-253.68213	-228.71416	33.55471	333.34686	259.36505	36.00623	363.99091	-47.80663	669.78015	-817.32251	-3.16359	530.67749	-332.47818	151.80554	535.49225	-325.60336	-50.54000	577.73920	548.85333	96.91975	578.71899	557.19989	
860	8.590	-194.03085	13.37171	-284.30624	300.10175	13.62590	-253.77771	-228.78864	33.71693	333.29938	259.26306	36.09437	363.92020	-47.82789	669.89948	-817.31836	-3.22703	530.69373	-332.40079	151.72287	535.53705	-325.56308	-50.59809	577.60522	548.91669	96.77884	578.57184	557.20496	
861	8.600	-193.97623	13.28692	-284.33664	300.17279	13.52097	-253.74815	-228.89474	33.89003	333.28519	259.26837	36.22058	363.90619	-47.93257	669.98553	-817.26776	-3.30154	530.69550	-332.42346	151.80142	535.45959	-325.06427	-50.65495	577.43481	549.07495	96.72563	578.45331	557.27649	
862	8.610	-194.02118	13.15469	-284.29770	300.08896	13.37306	-253.91248	-228.83513	33.94374	333.30850	259.21841	36.34008	363.85858	-47.93998	670.12146	-817.21582	-3.44838	530.84271	-332.37326	151.72131	535.58911	-325.03995	-50.81444	577.24670	549.16937	96.56416	578.30286	557.40009	
863	8.620	-194.08653	13.13347	-284.32404	299.97339	13.28336	-253.95996	-228.82907	34.01836	333.32816	259.14902	36.54449	363.85547	-48.00333	670.30194	-817.20941	-3.56106	530.84772	-332.34387	151.66223	535.69934	-325.04910	-51.08382	577.13824	549.14990	96.21294	578.17340	557.46533	
864	8.630	-193.95525	12.96019	-284.30280	300.05444	13.21521	-254.03740	-228.83333	34.07164	333.31787	259.16241	36.74289	363.80908	-47.76215	670.38666	-817.05450	-3.82040	531.01025	-332.29077	151.50548	535.83014	-325.06680	-51.23965	577.02203	549.14014	96.15584	577.91882	557.52771	
865	8.640	-193.98676	12.86575	-284.36182	299.96594	13.14081	-254.17458	-228.85074	34.20676	333.32098	259.11130	36.93230	363.74744	-48.12712	670.46698	-817.18579	-4.04771	531.25793	-332.23041	151.28816	536.20544	-325.52213	-51.36073	576.94708	549.13025	96.20749	577.82312	557.44586	
866	8.650	-194.04956	12.81107	-284.43008	299.92847	13.06786	-254.23320	-228.92104	34.32308	333.33362	259.09372	37.11035	363.66931	-48.13111	670.56470	-817.18024	-4.22782	531.47565	-332.24191	151.11809	536.43408	-325.55145	-51.59271	576.85852	549.07941	95.93093	577.81543	557.46808	
867	8.660	-193.99461	12.70164	-284.46799	300.00830	13.03355	-254.21246	-228.83167	34.40420	333.26495	259.10623	37.27924	363.66757	-48.16609	670.70398	-817.16791	-4.34260	531.67120	-332.23001	151.00151	536.63263	-325.53632	-51.67311	576.73596	549.16199	95.84205	577.76740	557.47705	
